<svg id="visual" viewBox="0 0 1005 600" width="1005" height="600" xmlns="http://www.w3.org/2000/svg" xmlns:xlink="http://www.w3.org/1999/xlink" version="1.1"><rect x="0" y="0" width="1005" height="600" fill="#001220"></rect><defs><linearGradient id="grad1_0" x1="40.3%" y1="100%" x2="100%" y2="0%"><stop offset="16.5%" stop-color="#001220" stop-opacity="1"></stop><stop offset="83.5%" stop-color="#001220" stop-opacity="1"></stop></linearGradient></defs><defs><linearGradient id="grad2_0" x1="0%" y1="100%" x2="59.7%" y2="0%"><stop offset="16.5%" stop-color="#001220" stop-opacity="1"></stop><stop offset="83.5%" stop-color="#001220" stop-opacity="1"></stop></linearGradient></defs><g transform="translate(1005, 600)"><path d="M-409.7 0C-397.8 -70.6 -386 -141.2 -353.3 -204C-320.7 -266.8 -267.2 -321.8 -204.8 -354.8C-142.5 -387.8 -71.2 -398.7 0 -409.7L0 0Z" fill="#C3CEDA"></path></g><g transform="translate(0, 0)"><path d="M409.7 0C402.4 77.6 395.1 155.2 354.8 204.8C314.5 254.5 241.1 276.2 176.5 305.7C111.9 335.2 55.9 372.4 0 409.7L0 0Z" fill="#C3CEDA"></path></g></svg>